<?xml version="1.0" encoding="UTF-8"?>
<svg width="1024px" height="1024px" viewBox="0 0 1024 1024" version="1.1" xmlns="http://www.w3.org/2000/svg" xmlns:xlink="http://www.w3.org/1999/xlink">
    <title>Artboard Copy</title>
    <g id="Artboard-Copy" stroke="none" stroke-width="1" fill="none" fill-rule="evenodd">
        <g id="SVG-file" transform="translate(209.000000, 36.000000)" fill="#000000" fill-rule="nonzero">
            <g id="Group">
                <polygon id="Path" points="303.5 937.632788 310.420036 946.710701 607 719.393855 607 268.302762 303.5 0 0 268.302762 0 719.393855 303.5 952 310.420036 946.710701 303.5 937.632788 310.420036 928.554875 22.7968548 708.101817 22.7968548 278.610745 303.5 30.4811226 584.203145 278.610745 584.203145 708.101817 296.579964 928.554875 303.5 937.632788 310.420036 928.554875"></polygon>
                <polygon id="Path" points="523.861417 646.180117 523.861417 326.042225 303.524539 131.248417 83.1140443 326.042225 83.1140443 651.838437 91.2855757 658.08719 105.125647 639.906763 101.444777 637.102204 94.5247413 646.180117 105.910899 646.180117 105.910899 336.374809 303.524539 161.72954 501.064562 336.374809 501.064562 646.180117"></polygon>
                <polygon id="Path" points="182.203064 727.758328 303.524539 820.726981 429.925614 723.797504 416.085543 705.641678 303.524539 791.967956 196.043136 709.602501"></polygon>
                <polygon id="Path" points="292.089303 146.525881 292.089303 471.092023 4.07349612 713.145102 18.7233587 730.661292 314.910697 481.769026 314.910697 146.525881 292.113842 146.525881"></polygon>
                <polyline id="Path" points="602.779269 704.879035 310.665427 467.549422 296.334573 485.311626 588.423876 722.616637"></polyline>
                <polygon id="Path" points="116.143718 796.962038 303.79447 634.396051 499.911223 790.61488 514.070302 772.729669 303.20553 604.726775 101.223925 779.667261"></polygon>
            </g>
        </g>
    </g>
</svg>